<?xml version="1.0" encoding="UTF-8" standalone="no"?>
<svg
   id="Layer_1"
   data-name="Layer 1"
   viewBox="0 0 500 500"
   version="1.1"
   sodipodi:docname="OpenAssetIO-logo-square.svg"
   inkscape:version="1.1.1 (c3084ef, 2021-09-22)"
   xmlns:inkscape="http://www.inkscape.org/namespaces/inkscape"
   xmlns:sodipodi="http://sodipodi.sourceforge.net/DTD/sodipodi-0.dtd"
   xmlns="http://www.w3.org/2000/svg"
   xmlns:svg="http://www.w3.org/2000/svg">
  <sodipodi:namedview
     id="namedview414"
     pagecolor="#ffffff"
     bordercolor="#666666"
     borderopacity="1.0"
     inkscape:pageshadow="2"
     inkscape:pageopacity="0.0"
     inkscape:pagecheckerboard="0"
     showgrid="false"
     inkscape:zoom="1.438"
     inkscape:cx="130.73713"
     inkscape:cy="258.34492"
     inkscape:window-width="1296"
     inkscape:window-height="969"
     inkscape:window-x="2343"
     inkscape:window-y="469"
     inkscape:window-maximized="0"
     inkscape:current-layer="Layer_1" />
  <defs
     id="defs383">
    <style
       id="style381">.cls-1{fill:#fff;}</style>
  </defs>
  <path
     id="logo"
     d="M 39.130859 136.49023 A 25.040001 25.040001 0 0 0 14.089844 161.5293 A 25.040001 25.040001 0 0 0 39.130859 186.57031 A 25.040001 25.040001 0 0 0 50.654297 183.69531 L 64.169922 192.86914 A 56.47 56.47 0 0 0 60.349609 212.43945 A 46 46 0 0 0 64.089844 232 L 56 238.89258 A 25.040001 25.040001 0 0 0 41.800781 234.4707 A 25.040001 25.040001 0 0 0 16.759766 259.50977 A 25.040001 25.040001 0 0 0 41.800781 284.55078 A 25.040001 25.040001 0 0 0 66.839844 259.50977 A 25.040001 25.040001 0 0 0 66.732422 257.24219 L 76 249.33984 A 52.39 52.39 0 0 0 110.81055 262.93945 A 50.55 50.55 0 1 0 110.81055 161.83984 L 110.7793 161.83984 A 49.86 49.86 0 0 0 76 175.43945 L 63.503906 166.98633 A 25.040001 25.040001 0 0 0 64.169922 161.5293 A 25.040001 25.040001 0 0 0 39.130859 136.49023 z M 110.92969 174.92969 A 41.44 41.44 0 0 1 126.34961 177.73047 A 36 36 0 0 1 138.57031 185.5 A 34.94 34.94 0 0 1 146.61914 197.5 A 41.76 41.76 0 0 1 149.5293 213.13086 A 40.22 40.22 0 0 1 146.61914 228.60938 A 35.88 35.88 0 0 1 126.34961 248.60938 A 41.26 41.26 0 0 1 110.92969 251.4707 A 40.82 40.82 0 0 1 95.560547 248.60938 A 35.88 35.88 0 0 1 83.400391 240.67969 A 35.36 35.36 0 0 1 75.400391 228.57031 A 40 40 0 0 1 72.550781 213.08984 A 41.71 41.71 0 0 1 75.400391 197.5 A 35.73 35.73 0 0 1 83.400391 185.5 A 37 37 0 0 1 95.560547 177.73047 A 42 42 0 0 1 110.92969 174.92969 z M 171.48047 175.21094 L 171.44922 253.68945 L 182.44922 253.68945 L 182.44922 219.21094 L 194.90039 219.21094 A 48.23 48.23 0 0 0 206.26953 217.93945 A 26.68 26.68 0 0 0 215.35938 214 A 18.48 18.48 0 0 0 221.35938 207.13086 A 21.87 21.87 0 0 0 223.51953 197.03906 A 22.34 22.34 0 0 0 221.51953 187.17969 A 18 18 0 0 0 215.86914 180.41992 A 25 25 0 0 0 207 176.48047 A 48.59 48.59 0 0 0 195.41992 175.21094 L 171.48047 175.21094 z M 237.40039 175.21094 L 237.40039 253.68945 L 289.40039 253.68945 L 289.40039 243.92969 L 248.40039 243.92969 L 248.40039 217.76953 L 285.40039 217.76953 L 285.40039 208.34961 L 248.40039 208.34961 L 248.40039 184.84961 L 287.7207 184.84961 L 287.7207 175.21094 L 237.40039 175.21094 z M 304 175.21094 L 304 253.68945 L 315 253.68945 L 315 189.61914 L 315.24023 189.61914 L 356.69922 253.68945 L 370.58008 253.68945 L 370.58008 175.21094 L 359.58008 175.21094 L 359.58008 238 L 359.35938 238 L 318.30078 175.21094 L 304 175.21094 z M 108.60156 184.04102 A 29.76 29.76 0 0 0 99.519531 186.23047 A 25.25 25.25 0 0 0 90.900391 192.57031 A 28.53 28.53 0 0 0 85.419922 201.88086 A 32 32 0 0 0 83.419922 213.13086 A 32.74 32.74 0 0 0 85.419922 224.55078 A 28.16 28.16 0 0 0 90.960938 233.85938 A 25.45 25.45 0 0 0 99.580078 240.08984 A 29.46 29.46 0 0 0 122.31055 240.08984 A 25.44 25.44 0 0 0 131.05078 233.85938 A 27.57 27.57 0 0 0 136.58984 224.55078 A 32.73 32.73 0 0 0 138.50977 213.13086 L 138.5293 213.13086 A 32 32 0 0 0 136.58984 201.88086 A 28.68 28.68 0 0 0 131.05078 192.57031 A 26.08 26.08 0 0 0 122.36914 186.23047 A 29.76 29.76 0 0 0 108.60156 184.04102 z M 182.44922 184.50977 L 194.33984 184.50977 A 39.72 39.72 0 0 1 201.55078 185.11914 A 16.13 16.13 0 0 1 207.25 187.2207 A 11.19 11.19 0 0 1 211.01953 191.09961 A 11.59 11.59 0 0 1 212.41016 197.0293 A 12.31 12.31 0 0 1 211.08008 203.0293 A 10.37 10.37 0 0 1 207.31055 206.96094 A 18.39 18.39 0 0 1 201.49023 209.17969 A 35.36 35.36 0 0 1 194.11914 209.90039 L 182.48047 209.90039 L 182.44922 184.50977 z M 153.07031 284.08008 A 42.67 42.67 0 0 0 142.49023 285.41016 A 28.93 28.93 0 0 0 133.09961 289.63086 A 22.25 22.25 0 0 0 126.36914 297 A 21.36 21.36 0 0 0 123.86914 307.76953 A 20.73 20.73 0 0 0 125.51953 316.48047 A 18.91 18.91 0 0 0 129.90039 322.56055 A 23.51 23.51 0 0 0 136.08984 326.66992 A 63.29 63.29 0 0 0 143.18945 329.44922 C 145.68945 330.23922 147.86914 330.96062 149.86914 331.64062 A 25.23 25.23 0 0 1 154.7793 333.88086 A 10.34 10.34 0 0 1 157.7793 336.60938 A 6 6 0 0 1 158.84961 340.24023 A 8.06 8.06 0 0 1 158 344.08008 A 6.94 6.94 0 0 1 155.69922 346.64062 A 9.76 9.76 0 0 1 152.33984 348.0293 A 17.84 17.84 0 0 1 148.39062 348.46094 A 19.78 19.78 0 0 1 139.39062 346.16016 A 22.09 22.09 0 0 1 132.08008 340.44922 L 120.08008 352.61914 A 33.2 33.2 0 0 0 132.67969 360.68945 A 44.68 44.68 0 0 0 148.38086 363.51953 A 38.92 38.92 0 0 0 159.16016 362.01953 A 27.39 27.39 0 0 0 168.44922 357.42969 A 22.34 22.34 0 0 0 174.91016 349.58008 A 24.59 24.59 0 0 0 177.32031 338.31055 A 18.26 18.26 0 0 0 175.07031 328.85938 A 21.58 21.58 0 0 0 169.41016 322.50977 A 29.63 29.63 0 0 0 161.83008 318.40039 C 159.07008 317.37039 156.40008 316.42031 153.83008 315.57031 C 152.05008 315.00365 150.4493 314.45016 149.0293 313.91016 A 20.5 20.5 0 0 1 145.33984 312.15039 A 7.24 7.24 0 0 1 142.99023 309.91016 A 6 6 0 0 1 142.18945 306.71094 A 6.24 6.24 0 0 1 143.18945 303.01953 A 8.28 8.28 0 0 1 145.69922 300.66992 A 9.64 9.64 0 0 1 149.06055 299.43945 A 22.17 22.17 0 0 1 152.75 299.11914 A 17.25 17.25 0 0 1 160.06055 300.89062 A 16.47 16.47 0 0 1 166.19922 305.64062 L 177.83984 293.36914 A 33.62 33.62 0 0 0 166.15039 286.42969 A 39.16 39.16 0 0 0 153.07031 284.08008 z M 216.17969 284.08008 A 42.67 42.67 0 0 0 205.59961 285.41016 A 28.93 28.93 0 0 0 196.21094 289.63086 A 22.25 22.25 0 0 0 189.48047 297 A 21.36 21.36 0 0 0 187.01953 307.76953 A 20.73 20.73 0 0 0 188.66992 316.48047 A 18.91 18.91 0 0 0 193.05078 322.56055 A 23.51 23.51 0 0 0 199.24023 326.66992 A 62.7 62.7 0 0 0 206.34961 329.44922 C 208.83961 330.23922 211.01953 330.96062 213.01953 331.64062 A 25.23 25.23 0 0 1 217.92969 333.88086 A 10.52 10.52 0 0 1 220.92969 336.60938 A 6.06 6.06 0 0 1 221.99023 340.24023 A 8.06 8.06 0 0 1 221.14062 344.08008 A 6.94 6.94 0 0 1 218.83984 346.64062 A 9.76 9.76 0 0 1 215.48047 348.0293 A 17.84 17.84 0 0 1 211.48047 348.46094 A 19.78 19.78 0 0 1 202.48047 346.16016 A 22.09 22.09 0 0 1 195.16992 340.44922 L 183.16992 352.61914 A 33.2 33.2 0 0 0 195.76953 360.68945 A 44.68 44.68 0 0 0 211.4707 363.51953 A 38.92 38.92 0 0 0 222.25 362.01953 A 27.39 27.39 0 0 0 231.53906 357.42969 A 22.34 22.34 0 0 0 238 349.58008 A 24.59 24.59 0 0 0 240.42969 338.28906 A 18.26 18.26 0 0 0 238.17969 328.83984 A 21.58 21.58 0 0 0 232.51953 322.49023 A 29.63 29.63 0 0 0 224.93945 318.38086 C 222.17945 317.35086 219.50945 316.40078 216.93945 315.55078 C 215.15945 314.98411 213.56063 314.43062 212.14062 313.89062 A 20.84 20.84 0 0 1 208.44922 312.13086 A 7.24 7.24 0 0 1 206.09961 309.89062 A 6 6 0 0 1 205.30078 306.68945 A 6.24 6.24 0 0 1 206.30078 303 A 8.28 8.28 0 0 1 208.81055 300.66992 A 9.72 9.72 0 0 1 212.16992 299.43945 A 22.17 22.17 0 0 1 215.85938 299.11914 A 17.25 17.25 0 0 1 223.16992 300.89062 A 16.47 16.47 0 0 1 229.31055 305.64062 L 241 293.35938 A 33.62 33.62 0 0 0 229.25977 286.42969 A 39.16 39.16 0 0 0 216.17969 284.08008 z M 445.80078 284.11719 A 45.83 45.83 0 0 0 429.80078 287 A 37.87 37.87 0 0 0 417.15039 295.00977 A 36.3 36.3 0 0 0 408.82031 307.50977 A 45 45 0 0 0 408.82031 339.75977 A 37 37 0 0 0 429.82031 360.58008 A 45 45 0 0 0 461.82031 360.58008 A 37.66 37.66 0 0 0 474.5293 352.35938 A 38.26 38.26 0 0 0 482.91992 339.75977 A 41.65 41.65 0 0 0 485.91992 323.67969 A 41.85 41.85 0 0 0 482.88086 307.5 A 37 37 0 0 0 474.49023 295 A 37.74 37.74 0 0 0 461.80078 287 A 45.83 45.83 0 0 0 445.80078 284.11719 z M 70.839844 286 L 39.130859 361.58984 L 59 361.58984 L 64.539062 346.75 L 93.800781 346.75 L 99.669922 361.58984 L 120 361.58984 L 88.570312 286 L 70.839844 286 z M 252.48047 286 L 252.48047 361.58984 L 305.24023 361.58984 L 305.24023 346 L 270.09961 346 L 270.09961 330.32031 L 301.5 330.32031 L 301.5 315.68945 L 270.09961 315.68945 L 270.09961 301.38086 L 303.31055 301.38086 L 303.31055 286 L 252.48047 286 z M 310 286 L 310 301.58008 L 331.40039 301.58008 L 331.40039 361.58008 L 349.66016 361.58008 L 349.66016 301.58008 L 371 301.58984 L 371 286 L 310 286 z M 380.73047 286 L 380.73047 361.58984 L 391.31055 361.58984 L 391.31055 286 L 380.73047 286 z M 443.44922 293.45703 A 30.45 30.45 0 0 1 457.73047 295.75977 A 26.93 26.93 0 0 1 466.73047 302.33008 A 29.65 29.65 0 0 1 472.49023 311.99023 A 33.61 33.61 0 0 1 474.49023 323.67969 A 34.32 34.32 0 0 1 472.46094 335.5293 A 28.94 28.94 0 0 1 466.69922 345.18945 A 26.56 26.56 0 0 1 457.61914 351.65039 A 29.05 29.05 0 0 1 445.76953 354 A 28.31 28.31 0 0 1 434.08008 351.66016 A 26.7 26.7 0 0 1 425.08008 345.19922 A 29 29 0 0 1 419.31055 335.53906 A 34.32 34.32 0 0 1 417.31055 323.67969 A 33.61 33.61 0 0 1 419.31055 311.99023 A 30.08 30.08 0 0 1 425.0293 302.33008 A 26.21 26.21 0 0 1 434.0293 295.75977 A 30.45 30.45 0 0 1 443.44922 293.45703 z M 79.380859 306.16992 L 88.769531 332.11914 L 69.769531 332.11914 L 79.380859 306.16992 z "
     inkscape:label="logo" />
</svg>
