<?xml version="1.0" encoding="UTF-8" standalone="no"?>
<svg
   id="Layer_1"
   data-name="Layer 1"
   viewBox="0 0 1640.327 289.73047"
   version="1.1"
   sodipodi:docname="OpenAssetIO-logo.svg"
   inkscape:version="1.1.1 (c3084ef, 2021-09-22)"
   width="1640.327"
   height="289.73047"
   xmlns:inkscape="http://www.inkscape.org/namespaces/inkscape"
   xmlns:sodipodi="http://sodipodi.sourceforge.net/DTD/sodipodi-0.dtd"
   xmlns="http://www.w3.org/2000/svg"
   xmlns:svg="http://www.w3.org/2000/svg">
  <sodipodi:namedview
     id="namedview144"
     pagecolor="#ffffff"
     bordercolor="#666666"
     borderopacity="1.0"
     inkscape:pageshadow="2"
     inkscape:pageopacity="0.0"
     inkscape:pagecheckerboard="0"
     showgrid="false"
     inkscape:zoom="0.63958575"
     inkscape:cx="820.8438"
     inkscape:cy="176.67686"
     inkscape:window-width="2176"
     inkscape:window-height="1188"
     inkscape:window-x="2240"
     inkscape:window-y="25"
     inkscape:window-maximized="0"
     inkscape:current-layer="Layer_1" />
  <defs
     id="defs113">
    <style
       id="style111">.cls-1{fill:#fff;}</style>
  </defs>
  <path
     id="logo"
     d="M 49,0 A 49,49 0 0 0 0,49 49,49 0 0 0 49,98.000001 49,49 0 0 0 71.478516,92.412111 l 26.41211,17.917969 c -4.29,11.67 -7.48047,24.43906 -7.48047,38.28906 0,13.85 2.10047,26.62103 7.48047,38.29101 l -15.85352,13.48243 a 49,49 0 0 0 -27.796872,-8.66211 49,49 0 0 0 -49,49 49,49 0 0 0 49,49 49,49 0 0 0 49.000006,-49 49,49 0 0 0 -0.21094,-4.44922 l 18.06055,-15.43164 c 18.05,15.95 41.47961,26.61914 68.09961,26.61914 54.24,0 98.91015,-44.66992 98.91015,-98.91992 0,-54.249999 -44.64867,-98.92969 -98.88867,-98.92969 -26.62,0 -50.00156,9.571097 -68.10156,26.621091 L 96.693356,59.6875 A 49,49 0 0 0 97.999996,49 49,49 0 0 0 49,0 Z m 1508.6602,71.509761 a 88.57,88.57 0 0 0 -32.8301,5.92969 77.85,77.85 0 0 0 -26,16.58008 74.64,74.64 0 0 0 -17.1406,25.699219 87.15,87.15 0 0 0 -6.1484,33.28125 86.57,86.57 0 0 0 6.1484,33.05859 76.78,76.78 0 0 0 17.1406,25.91016 77.59,77.59 0 0 0 26,16.91992 87.4,87.4 0 0 0 32.8301,6 88.33,88.33 0 0 0 33,-6 76.6,76.6 0 0 0 43.4004,-42.83008 85.11,85.11 0 0 0 6.2598,-33.05859 85.68,85.68 0 0 0 -6.2793,-33.28125 76,76 0 0 0 -17.2403,-25.699219 77.74,77.74 0 0 0 -26.1406,-16.58008 89.51,89.51 0 0 0 -33,-5.92969 z m -602.00004,0.0098 a 87.67,87.67 0 0 0 -21.71094,2.73047 59.78,59.78 0 0 0 -19.32812,8.67969 45.71,45.71 0 0 0 -13.83008,15.15039 c -3.52,6.126659 -5.28125,13.522779 -5.28125,22.189449 0.007,7.03333 1.14349,13.00039 3.41016,17.90039 a 39.15,39.15 0 0 0 9,12.51953 49.11,49.11 0 0 0 12.74023,8.46094 130.39,130.39 0 0 0 14.55078,5.75 c 5.15333,1.60667 9.72852,3.10667 13.72852,4.5 a 51.32,51.32 0 0 1 10.10156,4.60937 21.49,21.49 0 0 1 6.25976,5.60938 12.47,12.47 0 0 1 2.19918,7.46094 16.62,16.62 0 0 1 -1.75972,7.91015 14.24,14.24 0 0 1 -4.7207,5.26953 20.12,20.12 0 0 1 -6.91993,2.85938 37.09,37.09 0 0 1 -8.1289,0.88086 40.72,40.72 0 0 1 -18.56055,-4.73047 45.23,45.23 0 0 1 -15,-11.75 l -24.59961,25 a 68.32,68.32 0 0 0 25.91992,16.61914 91.54,91.54 0 0 0 32.2793,5.82031 80.4,80.4 0 0 0 22.18949,-3.08007 57,57 0 0 0 19.1113,-9.43946 46.34,46.34 0 0 0 13.28914,-16.15039 c 3.2933,-6.51333 4.9414,-14.23659 4.9414,-23.16992 0,-7.76 -1.538,-14.23945 -4.6114,-19.43945 a 44.72,44.72 0 0 0 -11.63864,-13.07032 61.74,61.74 0 0 0 -15.6016,-8.44922 c -5.7067,-2.12666 -11.19542,-4.07007 -16.46875,-5.83007 -3.66,-1.16667 -6.95729,-2.30039 -9.89063,-3.40039 a 43.63,43.63 0 0 1 -7.58008,-3.6211 14.71,14.71 0 0 1 -4.83007,-4.61914 12.18,12.18 0 0 1 -1.65039,-6.58984 12.9,12.9 0 0 1 2.08984,-7.58008 17.23,17.23 0 0 1 5.16992,-4.85938 19.68,19.68 0 0 1 6.91992,-2.52148 44.72,44.72 0 0 1 7.58008,-0.6582 35.75,35.75 0 0 1 14.99996,3.61914 34.1,34.1 0 0 1 12.6309,9.7793 l 24.00004,-25.259769 a 69.29,69.29 0 0 0 -24.08984,-14.26953 80.85,80.85 0 0 0 -26.9102,-4.83008 z m 129.83014,0.0293 a 87.73,87.73 0 0 0 -21.75,2.74023 59.73,59.73 0 0 0 -19.3203,8.67969 45.63,45.63 0 0 0 -13.8399,15.15039 c -3.5133,6.126669 -5.2695,13.522789 -5.2695,22.189449 0,7.03334 1.1337,13.00039 3.4004,17.90039 a 39,39 0 0 0 9,12.52149 48.94,48.94 0 0 0 12.7383,8.45898 129.49,129.49 0 0 0 14.6015,5.71094 c 5.1534,1.60667 9.7285,3.10667 13.7285,4.5 a 51.06,51.06 0 0 1 10.1016,4.60937 21.49,21.49 0 0 1 6.2598,5.60938 12.47,12.47 0 0 1 2.1992,7.46094 16.62,16.62 0 0 1 -1.7598,7.91015 14.24,14.24 0 0 1 -4.7207,5.26953 20.12,20.12 0 0 1 -6.9199,2.85938 37.07,37.07 0 0 1 -8.1191,0.88086 40.69,40.69 0 0 1 -18.5606,-4.73047 45.27,45.27 0 0 1 -15,-11.75 l -24.5996,25 a 68.32,68.32 0 0 0 25.9297,16.58984 91.59,91.59 0 0 0 32.291,5.82032 80.38,80.38 0 0 0 22.1797,-3.08008 57,57 0 0 0 19.1094,-9.43946 46.34,46.34 0 0 0 13.291,-16.15039 c 3.2933,-6.51333 4.9394,-14.23658 4.9394,-23.16992 0,-7.76 -1.536,-14.23945 -4.6093,-19.43945 a 44.72,44.72 0 0 0 -11.6407,-13.07031 61.74,61.74 0 0 0 -15.5996,-8.45117 c -5.7066,-2.12667 -11.1973,-4.07008 -16.4707,-5.83008 -3.6666,-1.16667 -6.9639,-2.29844 -9.8906,-3.39844 a 44,44 0 0 1 -7.5801,-3.62109 14.71,14.71 0 0 1 -4.8301,-4.61915 12.18,12.18 0 0 1 -1.6386,-6.58984 12.9,12.9 0 0 1 2.08,-7.58008 17.23,17.23 0 0 1 5.1602,-4.83008 19.68,19.68 0 0 1 6.9199,-2.52148 44.72,44.72 0 0 1 7.5801,-0.6582 35.75,35.75 0 0 1 15,3.61914 34.1,34.1 0 0 1 12.6289,9.7793 l 23.8906,-25.218759 a 69.29,69.29 0 0 0 -24,-14.28124 80.8,80.8 0 0 0 -26.9101,-4.83008 z m -895.961,3.66015 a 80.87,80.87 0 0 1 30.13086,5.48047 70.68,70.68 0 0 1 23.91992,15.19922 68.29,68.29 0 0 1 15.75977,23.630859 81.82,81.82 0 0 1 5.70117,30.46094 78.55,78.55 0 0 1 -5.70117,30.27929 70.32,70.32 0 0 1 -39.67969,39.25977 80.91,80.91 0 0 1 -30.16992,5.58984 80,80 0 0 1 -30.06055,-5.58984 70.34,70.34 0 0 1 -23.76953,-15.57031 68.87,68.87 0 0 1 -15.64062,-23.68946 78.13,78.13 0 0 1 -5.58985,-30.27929 81.38,81.38 0 0 1 5.56055,-30.46094 70,70 0 0 1 15.66992,-23.630859 73.1,73.1 0 0 1 23.80078,-15.19922 82.16,82.16 0 0 1 30.06836,-5.48047 z m 597.02148,0.25 -65.24023,155.509769 h 40.85938 l 11.41992,-30.5293 h 60.17969 l 12.08984,30.5293 h 41.73047 L 823.00977,75.458981 Z m 373.61922,0 V 230.96875 h 108.4902 v -32.06836 h -72.25 v -32.28125 h 64.5801 v -30.09961 h -64.5801 v -29.42969 h 68.3105 V 75.458981 Z m 118.3906,0 v 32.060549 h 43.9297 v 123.44922 h 37.5605 V 107.51953 h 43.9297 V 75.458981 Z m 145.4101,0 V 230.96875 h 21.7403 V 75.458981 Z M 307.98047,75.769531 V 229.33984 h 21.46875 V 161.87891 H 353.75 a 94.49,94.49 0 0 0 22.23047,-2.49024 52.34,52.34 0 0 0 17.7793,-7.69922 36.28,36.28 0 0 0 11.7207,-13.44922 c 2.82,-5.48666 4.23047,-12.0669 4.23047,-19.74023 -0.007,-7.53333 -1.31015,-13.96745 -3.91016,-19.300779 a 35.07,35.07 0 0 0 -11.06054,-13.23047 48.92,48.92 0 0 0 -17.34961,-7.69922 95.14,95.14 0 0 0 -22.56055,-2.5 z m 129.04883,0 V 229.33984 H 538.75977 V 210.25 h -80.25 v -51.17969 h 72.43945 V 140.63867 H 458.50977 V 94.638671 h 77 v -18.86914 z m 130.36133,0 V 229.33984 h 21.46875 V 103.96875 h 0.4414 l 81.11915,125.37109 h 27.15039 V 75.769531 H 676.09961 V 198.51953 h -0.43945 L 595.39063,75.769531 Z m 985.44727,15.00977 a 62.63,62.63 0 0 1 29.3828,4.74023 55.32,55.32 0 0 1 18.5586,13.599609 61.18,61.18 0 0 1 11.8711,19.88086 69,69 0 0 1 4.17,24 70.51,70.51 0 0 1 -4.1602,24.37891 59.64,59.64 0 0 1 -11.8809,19.85156 54.42,54.42 0 0 1 -18.6699,13.28906 59.92,59.92 0 0 1 -24.3789,4.83008 58.4,58.4 0 0 1 -24.1601,-4.83008 55.1,55.1 0 0 1 -18.4493,-13.34961 59.46,59.46 0 0 1 -11.8613,-19.88086 70.51,70.51 0 0 1 -4.1699,-24.37891 69,69 0 0 1 4.1699,-24 62.14,62.14 0 0 1 11.75,-19.88085 54.2,54.2 0 0 1 18.4512,-13.509769 62.63,62.63 0 0 1 19.3769,-4.74023 z m -1367.94141,2.29101 a 58.11,58.11 0 0 0 -17.76563,4.28906 49.31,49.31 0 0 0 -16.88086,12.410159 56.07,56.07 0 0 0 -10.73046,18.21094 62.94,62.94 0 0 0 -3.79883,22 64.35,64.35 0 0 0 3.79883,22.34961 55.19,55.19 0 0 0 10.86132,18.18945 50,50 0 0 0 16.87891,12.18945 57.56,57.56 0 0 0 44.48047,0 49.8,49.8 0 0 0 17.08984,-12.18945 53.93,53.93 0 0 0 10.83008,-18.18945 63.91,63.91 0 0 0 3.81055,-22.34961 62.46,62.46 0 0 0 -3.80078,-22 56.16,56.16 0 0 0 -10.83985,-18.21094 50.88,50.88 0 0 0 -17,-12.410159 58.11,58.11 0 0 0 -26.93359,-4.28906 z m 144.55273,0.93945 h 23.21094 a 78.79,78.79 0 0 1 14.09961,1.18946 31.43,31.43 0 0 1 11.16992,4.13086 21.76,21.76 0 0 1 7.37109,7.589839 22.76,22.76 0 0 1 2.71876,11.59961 24.11,24.11 0 0 1 -2.59961,11.68945 20.24,20.24 0 0 1 -7.36915,7.70117 35.78,35.78 0 0 1 -11.39062,4.33985 69.22,69.22 0 0 1 -14.42969,1.41015 h -22.78125 z m 474.67188,22.958989 19.32812,53.37109 h -39.09961 z"
     inkscape:label="logo" />
</svg>
